<svg width="577" height="171" viewBox="0 0 577 171" fill="none" xmlns="http://www.w3.org/2000/svg">
<g clip-path="url(#clip0_4147_33341)">
<rect x="-1" width="578" height="171" rx="85.5" fill="white"/>
<path d="M126.507 106.066C129.001 103.576 133.037 103.583 135.523 106.081C138.009 108.579 138.002 112.623 135.508 115.113L124.435 126.17C114.219 136.371 97.5605 136.519 87.1723 126.513C87.1122 126.456 82.4866 121.92 67.227 106.957C57.0752 97.0029 56.0638 81.0749 65.617 70.8464L83.4287 51.7746C92.91 41.6219 110.387 40.5123 121.228 49.279L137.405 62.3621C140.145 64.5777 140.573 68.5985 138.361 71.3429C136.149 74.0873 132.135 74.516 129.396 72.3004L113.219 59.2173C107.549 54.6325 97.6319 55.2622 92.7398 60.5007L74.9279 79.5727C70.2772 84.5522 70.7866 92.574 76.1461 97.8292C87.3515 108.817 95.9874 117.285 95.9974 117.294C101.398 122.496 110.131 122.418 115.434 117.123L126.507 106.066Z" fill="#FFA116"/>
<path fill-rule="evenodd" clip-rule="evenodd" d="M99.6072 95.0013C96.0862 95.0013 93.2319 92.142 93.2319 88.6149C93.2319 85.0878 96.0862 82.2285 99.6072 82.2285H146.625C150.146 82.2285 153 85.0878 153 88.6149C153 92.142 150.146 95.0013 146.625 95.0013H99.6072Z" fill="#B3B3B3"/>
<path fill-rule="evenodd" clip-rule="evenodd" d="M108.412 25.0234C110.818 22.4477 114.852 22.3131 117.423 24.7228C119.995 27.1324 120.129 31.1739 117.723 33.7495L74.9281 79.5729C70.2772 84.552 70.7866 92.5738 76.1458 97.8292L95.9093 117.209C98.4254 119.676 98.4685 123.72 96.0055 126.24C93.5425 128.761 89.5061 128.804 86.99 126.337L67.2264 106.957C57.0752 97.0021 56.0638 81.0741 65.6174 70.8463L108.412 25.0234Z" fill="black"/>
<path fill-rule="evenodd" clip-rule="evenodd" d="M190.914 61.8828V103.914C190.914 105.529 191.487 106.909 192.633 108.055C193.779 109.201 195.159 109.773 196.773 109.773H208.141C209.13 109.773 209.977 110.125 210.68 110.828C211.383 111.531 211.734 112.378 211.734 113.367V113.445C211.734 114.435 211.383 115.268 210.68 115.945C209.977 116.648 209.13 117 208.141 117H196.773C193.154 117 190.068 115.724 187.516 113.172C184.964 110.62 183.688 107.534 183.688 103.914V61.8828C183.688 60.8932 184.039 60.0469 184.742 59.3438C185.445 58.6667 186.279 58.3281 187.242 58.3281H187.359C188.323 58.3281 189.156 58.6667 189.859 59.3438C190.563 60.0469 190.914 60.8932 190.914 61.8828ZM236.188 81.6484C232.281 81.6484 228.948 83.0286 226.188 85.7891C223.453 88.5495 222.086 91.8828 222.086 95.7891C222.086 96.4922 222.138 97.1823 222.242 97.8594L246.969 86.6875C244.156 83.3281 240.563 81.6484 236.188 81.6484ZM255.562 86.8047C255.979 87.6901 256.018 88.6016 255.68 89.5391C255.341 90.4505 254.716 91.1146 253.805 91.5312C250.159 93.1719 245.367 95.3333 239.43 98.0156C232.06 101.349 227.281 103.51 225.094 104.5C227.906 108.094 231.604 109.891 236.188 109.891C239.234 109.891 241.995 108.992 244.469 107.195C246.865 105.451 248.544 103.185 249.508 100.398C250.081 98.7838 251.227 97.9766 252.945 97.9766C254.169 97.9766 255.146 98.4844 255.875 99.5C256.578 100.49 256.721 101.57 256.305 102.742C254.846 106.961 252.294 110.372 248.648 112.977C244.924 115.659 240.771 117 236.188 117C230.302 117 225.276 114.917 221.109 110.75C216.943 106.583 214.859 101.557 214.859 95.6719C214.859 89.7864 216.943 84.7604 221.109 80.5938C225.276 76.4271 230.302 74.3438 236.188 74.3438C240.432 74.3438 244.312 75.5026 247.828 77.8203C251.292 80.0859 253.87 83.0807 255.562 86.8047ZM283.727 81.6484C279.82 81.6484 276.487 83.0286 273.727 85.7891C270.992 88.5495 269.625 91.8828 269.625 95.7891C269.625 96.4922 269.677 97.1823 269.781 97.8594L294.508 86.6875C291.695 83.3281 288.102 81.6484 283.727 81.6484ZM303.102 86.8047C303.518 87.6901 303.557 88.6016 303.219 89.5391C302.88 90.4505 302.255 91.1146 301.344 91.5312C297.698 93.1719 292.906 95.3333 286.969 98.0156C279.599 101.349 274.82 103.51 272.633 104.5C275.445 108.094 279.143 109.891 283.727 109.891C286.773 109.891 289.534 108.992 292.008 107.195C294.404 105.451 296.083 103.185 297.047 100.398C297.62 98.7838 298.766 97.9766 300.484 97.9766C301.708 97.9766 302.685 98.4844 303.414 99.5C304.117 100.49 304.26 101.57 303.844 102.742C302.385 106.961 299.833 110.372 296.188 112.977C292.464 115.659 288.31 117 283.727 117C277.841 117 272.815 114.917 268.648 110.75C264.482 106.583 262.398 101.557 262.398 95.6719C262.398 89.7864 264.482 84.7604 268.648 80.5938C272.815 76.4271 277.841 74.3438 283.727 74.3438C287.971 74.3438 291.852 75.5026 295.367 77.8203C298.831 80.0859 301.409 83.0807 303.102 86.8047ZM314.781 58.3281C315.745 58.3281 316.578 58.6667 317.281 59.3438C317.984 60.0469 318.336 60.8932 318.336 61.8828V74.3438H325.367C326.331 74.3438 327.164 74.6953 327.867 75.3984C328.57 76.1016 328.922 76.9479 328.922 77.9375V78.0156C328.922 79.0052 328.57 79.8385 327.867 80.5156C327.164 81.2188 326.331 81.5703 325.367 81.5703H318.336V105.906C318.336 106.974 318.714 107.885 319.469 108.641C320.224 109.396 321.148 109.773 322.242 109.773H325.367C326.331 109.773 327.164 110.125 327.867 110.828C328.57 111.531 328.922 112.378 328.922 113.367V113.445C328.922 114.435 328.57 115.268 327.867 115.945C327.164 116.648 326.331 117 325.367 117H322.242C319.169 117 316.539 115.919 314.352 113.758C312.19 111.57 311.109 108.953 311.109 105.906V61.8828C311.109 60.8932 311.461 60.0469 312.164 59.3438C312.867 58.6667 313.701 58.3281 314.664 58.3281H314.781ZM362.75 58.3281C365.224 58.3281 367.659 58.6276 370.055 59.2266C371.852 59.6953 372.75 60.8411 372.75 62.6641V62.7812C372.75 63.9271 372.281 64.8646 371.344 65.5938C370.432 66.2969 369.417 66.5052 368.297 66.2188C366.474 65.75 364.625 65.5156 362.75 65.5156C356.656 65.5156 351.448 67.6771 347.125 72C342.802 76.3229 340.641 81.5442 340.641 87.6641C340.641 93.7839 342.802 99.0052 347.125 103.328C351.448 107.625 356.656 109.773 362.75 109.773C364.625 109.773 366.474 109.552 368.297 109.109C369.417 108.823 370.432 109.031 371.344 109.734C372.281 110.438 372.75 111.375 372.75 112.547V112.625C372.75 114.474 371.852 115.633 370.055 116.102C367.659 116.701 365.224 117 362.75 117C354.651 117 347.737 114.135 342.008 108.406C336.279 102.677 333.414 95.7631 333.414 87.6641C333.414 79.5651 336.279 72.6511 342.008 66.9219C347.737 61.1927 354.651 58.3281 362.75 58.3281ZM399.156 81.6484C395.25 81.6484 391.917 83.0286 389.156 85.7891C386.422 88.5495 385.055 91.8828 385.055 95.7891C385.055 99.6693 386.422 102.99 389.156 105.75C391.917 108.51 395.25 109.891 399.156 109.891C403.063 109.891 406.383 108.51 409.117 105.75C411.878 102.99 413.258 99.6693 413.258 95.7891C413.258 91.8828 411.878 88.5495 409.117 85.7891C406.383 83.0286 403.063 81.6484 399.156 81.6484ZM399.156 74.3438C405.042 74.3438 410.068 76.4271 414.234 80.5938C418.401 84.7604 420.484 89.7864 420.484 95.6719C420.484 101.557 418.401 106.583 414.234 110.75C410.068 114.917 405.042 117 399.156 117C393.271 117 388.245 114.917 384.078 110.75C379.911 106.583 377.828 101.557 377.828 95.6719C377.828 89.7864 379.911 84.7604 384.078 80.5938C388.245 76.4271 393.271 74.3438 399.156 74.3438ZM447.281 81.6484C443.375 81.6484 440.042 83.0286 437.281 85.7891C434.547 88.5495 433.18 91.8828 433.18 95.7891C433.18 99.6693 434.547 102.99 437.281 105.75C440.042 108.51 443.375 109.891 447.281 109.891C451.188 109.891 454.508 108.51 457.242 105.75C460.003 102.99 461.383 99.6693 461.383 95.7891C461.383 91.8828 460.003 88.5495 457.242 85.7891C454.508 83.0286 451.188 81.6484 447.281 81.6484ZM465.055 58.3281C466.018 58.3281 466.852 58.6667 467.555 59.3438C468.258 60.0469 468.609 60.8932 468.609 61.8828V95.7891C468.583 101.648 466.487 106.648 462.32 110.789C458.154 114.93 453.141 117 447.281 117C441.396 117 436.37 114.917 432.203 110.75C428.036 106.583 425.953 101.557 425.953 95.6719C425.953 89.7864 428.036 84.7604 432.203 80.5938C436.37 76.4271 441.396 74.3438 447.281 74.3438C452.646 74.3438 457.346 76.1276 461.383 79.6953V61.8828C461.383 60.8932 461.734 60.0469 462.438 59.3438C463.141 58.6667 463.974 58.3281 464.938 58.3281H465.055ZM496.578 81.6484C492.672 81.6484 489.339 83.0286 486.578 85.7891C483.844 88.5495 482.477 91.8828 482.477 95.7891C482.477 96.4922 482.529 97.1823 482.633 97.8594L507.359 86.6875C504.547 83.3281 500.953 81.6484 496.578 81.6484ZM515.953 86.8047C516.37 87.6901 516.409 88.6016 516.07 89.5391C515.732 90.4505 515.107 91.1146 514.195 91.5312C510.549 93.1719 505.758 95.3333 499.82 98.0156C492.45 101.349 487.672 103.51 485.484 104.5C488.297 108.094 491.995 109.891 496.578 109.891C499.625 109.891 502.385 108.992 504.859 107.195C507.255 105.451 508.935 103.185 509.898 100.398C510.471 98.7838 511.617 97.9766 513.336 97.9766C514.56 97.9766 515.536 98.4844 516.266 99.5C516.969 100.49 517.112 101.57 516.695 102.742C515.237 106.961 512.685 110.372 509.039 112.977C505.315 115.659 501.161 117 496.578 117C490.693 117 485.667 114.917 481.5 110.75C477.333 106.583 475.25 101.557 475.25 95.6719C475.25 89.7864 477.333 84.7604 481.5 80.5938C485.667 76.4271 490.693 74.3438 496.578 74.3438C500.823 74.3438 504.703 75.5026 508.219 77.8203C511.682 80.0859 514.26 83.0807 515.953 86.8047Z" fill="black"/>
</g>
<defs>
<clipPath id="clip0_4147_33341">
<rect width="577" height="171" fill="white"/>
</clipPath>
</defs>
</svg>
